<svg version="1.1" viewBox="0.0 0.0 600.0 371.0" fill="none" stroke="none" stroke-linecap="square" stroke-miterlimit="10" width="600" height="371" xmlns:xlink="http://www.w3.org/1999/xlink" xmlns="http://www.w3.org/2000/svg"><path fill="#ffffff" d="M0 0L600.0 0L600.0 371.0L0 371.0L0 0Z" fill-rule="nonzero"/><path stroke="#333333" stroke-width="1.0" stroke-linecap="butt" d="M98.5 290.5L581.5 290.5" fill-rule="nonzero"/><path stroke="#cccccc" stroke-width="1.0" stroke-linecap="butt" d="M98.5 202.5L581.5 202.5" fill-rule="nonzero"/><path stroke="#cccccc" stroke-width="1.0" stroke-linecap="butt" d="M98.5 113.5L581.5 113.5" fill-rule="nonzero"/><path stroke="#cccccc" stroke-width="1.0" stroke-linecap="butt" d="M98.5 25.5L581.5 25.5" fill-rule="nonzero"/><clipPath id="id_0"><path d="M98.55 25.55L581.45 25.55L581.45 290.45L98.55 290.45L98.55 25.55Z" clip-rule="nonzero"/></clipPath><path stroke="#000000" stroke-width="2.0" stroke-linecap="butt" stroke-opacity="0.0" clip-path="url(#id_0)" d="M189.0 290.0L130.0 290.0L130.0 207.0C130.0 205.89543 130.89543 205.0 132.0 205.0L187.0 205.0C188.10457 205.0 189.0 205.89543 189.0 207.0Z" fill-rule="nonzero"/><path fill="#d9d9d9" clip-path="url(#id_0)" d="M189.0 290.0L130.0 290.0L130.0 207.0C130.0 205.89543 130.89543 205.0 132.0 205.0L187.0 205.0C188.10457 205.0 189.0 205.89543 189.0 207.0Z" fill-rule="nonzero"/><path stroke="#000000" stroke-width="2.0" stroke-linecap="butt" stroke-opacity="0.0" clip-path="url(#id_0)" d="M280.0 290.0L221.0 290.0L221.0 206.0C221.0 204.89543 221.89543 204.0 223.0 204.0L278.0 204.0C279.10458 204.0 280.0 204.89543 280.0 206.0Z" fill-rule="nonzero"/><path fill="#d9d9d9" clip-path="url(#id_0)" d="M280.0 290.0L221.0 290.0L221.0 206.0C221.0 204.89543 221.89543 204.0 223.0 204.0L278.0 204.0C279.10458 204.0 280.0 204.89543 280.0 206.0Z" fill-rule="nonzero"/><path stroke="#000000" stroke-width="2.0" stroke-linecap="butt" stroke-opacity="0.0" clip-path="url(#id_0)" d="M370.0 290.0L311.0 290.0L311.0 149.0C311.0 147.89543 311.89542 147.0 313.0 147.0L368.0 147.0C369.10458 147.0 370.0 147.89543 370.0 149.0Z" fill-rule="nonzero"/><path fill="#cccccc" clip-path="url(#id_0)" d="M370.0 290.0L311.0 290.0L311.0 149.0C311.0 147.89543 311.89542 147.0 313.0 147.0L368.0 147.0C369.10458 147.0 370.0 147.89543 370.0 149.0Z" fill-rule="nonzero"/><path stroke="#000000" stroke-width="2.0" stroke-linecap="butt" stroke-opacity="0.0" clip-path="url(#id_0)" d="M460.0 290.0L401.0 290.0L401.0 54.0C401.0 52.89543 401.89542 52.0 403.0 52.0L458.0 52.0C459.10458 52.0 460.0 52.89543 460.0 54.0Z" fill-rule="nonzero"/><path fill="#e87092" clip-path="url(#id_0)" d="M460.0 290.0L401.0 290.0L401.0 54.0C401.0 52.89543 401.89542 52.0 403.0 52.0L458.0 52.0C459.10458 52.0 460.0 52.89543 460.0 54.0Z" fill-rule="nonzero"/><path stroke="#000000" stroke-width="2.0" stroke-linecap="butt" stroke-opacity="0.0" clip-path="url(#id_0)" d="M551.0 290.0L492.0 290.0L492.0 40.0C492.0 38.89543 492.89542 38.0 494.0 38.0L549.0 38.0C550.10455 38.0 551.0 38.89543 551.0 40.0Z" fill-rule="nonzero"/><path fill="#e87092" clip-path="url(#id_0)" d="M551.0 290.0L492.0 290.0L492.0 40.0C492.0 38.89543 492.89542 38.0 494.0 38.0L549.0 38.0C550.10455 38.0 551.0 38.89543 551.0 40.0Z" fill-rule="nonzero"/><path fill="#000000" d="M26.440638 207.09375Q24.706263 207.09375 23.878138 206.14062Q23.190638 205.34375 23.190638 204.1875Q23.190638 202.90625 24.034388 202.09375Q24.862513 201.26562 26.346888 201.26562Q27.550013 201.26562 28.237513 201.625Q28.925013 201.98438 29.315638 202.6875Q29.690638 203.375 29.690638 204.1875Q29.690638 205.48438 28.862513 206.29688Q28.018763 207.09375 26.440638 207.09375ZM26.440638 206.01562Q27.628138 206.01562 28.221888 205.5Q28.815638 204.96875 28.815638 204.1875Q28.815638 203.39062 28.221888 202.875Q27.628138 202.35938 26.409388 202.35938Q25.253138 202.35938 24.659388 202.89062Q24.065638 203.40625 24.065638 204.1875Q24.065638 204.96875 24.659388 205.5Q25.237513 206.01562 26.440638 206.01562ZM31.940638 199.70312L23.331263 199.70312L23.331263 198.75L24.128138 198.75Q23.659388 198.40625 23.425013 197.98438Q23.190638 197.54688 23.190638 196.9375Q23.190638 196.14062 23.596888 195.53125Q24.003138 194.92188 24.753138 194.625Q25.503138 194.3125 26.393763 194.3125Q27.346888 194.3125 28.112513 194.65625Q28.878138 194.98438 29.284388 195.64062Q29.690638 196.29688 29.690638 197.01562Q29.690638 197.54688 29.471888 197.96875Q29.237513 198.39062 28.909388 198.65625L31.940638 198.65625L31.940638 199.70312ZM26.471888 198.75Q27.675013 198.75 28.253138 198.26562Q28.815638 197.78125 28.815638 197.09375Q28.815638 196.39062 28.221888 195.89062Q27.628138 195.39062 26.378138 195.39062Q25.190638 195.39062 24.612513 195.875Q24.018763 196.35938 24.018763 197.04688Q24.018763 197.71875 24.643763 198.23438Q25.268763 198.75 26.471888 198.75ZM27.690638 193.125L27.534388 192.09375Q28.159388 192.0 28.487513 191.60938Q28.815638 191.20312 28.815638 190.46875Q28.815638 189.75 28.534388 189.40625Q28.237513 189.04688 27.831263 189.04688Q27.471888 189.04688 27.268763 189.35938Q27.128138 189.57812 26.909388 190.4375Q26.612513 191.59375 26.409388 192.04688Q26.190638 192.48438 25.815638 192.71875Q25.440638 192.95312 24.971888 192.95312Q24.565638 192.95312 24.206263 192.76562Q23.846888 192.57812 23.612513 192.25Q23.440638 192.0 23.315638 191.57812Q23.190638 191.15625 23.190638 190.65625Q23.190638 189.9375 23.409388 189.39062Q23.612513 188.82812 23.971888 188.5625Q24.331263 188.29688 24.925013 188.20312L25.065638 189.23438Q24.596888 189.29688 24.331263 189.64062Q24.050013 189.96875 24.050013 190.59375Q24.050013 191.3125 24.300013 191.625Q24.534388 191.9375 24.862513 191.9375Q25.065638 191.9375 25.221888 191.8125Q25.393763 191.67188 25.503138 191.40625Q25.565638 191.25 25.768763 190.46875Q26.081263 189.34375 26.268763 188.90625Q26.456263 188.46875 26.815638 188.21875Q27.175013 187.96875 27.721888 187.96875Q28.253138 187.96875 28.721888 188.28125Q29.175013 188.57812 29.440638 189.15625Q29.690638 189.73438 29.690638 190.46875Q29.690638 191.6875 29.190638 192.32812Q28.675013 192.95312 27.690638 193.125ZM29.690638 186.5L20.815638 184.01562L20.815638 183.17188L29.690638 185.65625L29.690638 186.5ZM27.690638 183.125L27.534388 182.09375Q28.159388 182.0 28.487513 181.60938Q28.815638 181.20312 28.815638 180.46875Q28.815638 179.75 28.534388 179.40625Q28.237513 179.04688 27.831263 179.04688Q27.471888 179.04688 27.268763 179.35938Q27.128138 179.57812 26.909388 180.4375Q26.612513 181.59375 26.409388 182.04688Q26.190638 182.48438 25.815638 182.71875Q25.440638 182.95312 24.971888 182.95312Q24.565638 182.95312 24.206263 182.76562Q23.846888 182.57812 23.612513 182.25Q23.440638 182.0 23.315638 181.57812Q23.190638 181.15625 23.190638 180.65625Q23.190638 179.9375 23.409388 179.39062Q23.612513 178.82812 23.971888 178.5625Q24.331263 178.29688 24.925013 178.20312L25.065638 179.23438Q24.596888 179.29688 24.331263 179.64062Q24.050013 179.96875 24.050013 180.59375Q24.050013 181.3125 24.300013 181.625Q24.534388 181.9375 24.862513 181.9375Q25.065638 181.9375 25.221888 181.8125Q25.393763 181.67188 25.503138 181.40625Q25.565638 181.25 25.768763 180.46875Q26.081263 179.34375 26.268763 178.90625Q26.456263 178.46875 26.815638 178.21875Q27.175013 177.96875 27.721888 177.96875Q28.253138 177.96875 28.721888 178.28125Q29.175013 178.57812 29.440638 179.15625Q29.690638 179.73438 29.690638 180.46875Q29.690638 181.6875 29.190638 182.32812Q28.675013 182.95312 27.690638 183.125ZM27.550013 171.45312L27.675013 170.35938Q28.628138 170.60938 29.159388 171.3125Q29.690638 172.01562 29.690638 173.09375Q29.690638 174.45312 28.846888 175.26562Q28.003138 176.0625 26.487513 176.0625Q24.925013 176.0625 24.065638 175.25Q23.190638 174.4375 23.190638 173.15625Q23.190638 171.90625 24.034388 171.125Q24.878138 170.32812 26.425013 170.32812Q26.518763 170.32812 26.706263 170.32812L26.706263 174.96875Q27.737513 174.90625 28.284388 174.39062Q28.815638 173.875 28.815638 173.09375Q28.815638 172.51562 28.518763 172.10938Q28.206263 171.6875 27.550013 171.45312ZM25.846888 174.90625L25.846888 171.4375Q25.050013 171.5 24.659388 171.82812Q24.050013 172.34375 24.050013 173.14062Q24.050013 173.875 24.534388 174.375Q25.018763 174.85938 25.846888 174.90625ZM27.268763 164.64062L27.409388 163.60938Q28.471888 163.78125 29.081263 164.48438Q29.690638 165.1875 29.690638 166.20312Q29.690638 167.48438 28.862513 168.26562Q28.018763 169.03125 26.456263 169.03125Q25.456263 169.03125 24.706263 168.70312Q23.940638 168.35938 23.565638 167.6875Q23.190638 167.0 23.190638 166.1875Q23.190638 165.1875 23.706263 164.54688Q24.206263 163.89062 25.159388 163.70312L25.315638 164.73438Q24.690638 164.875 24.378138 165.25Q24.050013 165.625 24.050013 166.15625Q24.050013 166.95312 24.628138 167.45312Q25.190638 167.95312 26.425013 167.95312Q27.690638 167.95312 28.253138 167.46875Q28.815638 166.98438 28.815638 166.21875Q28.815638 165.59375 28.440638 165.1875Q28.065638 164.76562 27.268763 164.64062Z" fill-rule="nonzero"/><path fill="#000000" d="M86.05 290.21564Q86.05 288.6844 86.3625 287.7625Q86.675 286.825 87.28438 286.325Q87.90938 285.825 88.84688 285.825Q89.53438 285.825 90.05 286.10626Q90.58125 286.3875 90.925 286.91876Q91.26875 287.4344 91.45625 288.1844Q91.64375 288.9344 91.64375 290.21564Q91.64375 291.73126 91.33125 292.65314Q91.03438 293.575 90.40938 294.09064Q89.8 294.59064 88.84688 294.59064Q87.6125 294.59064 86.89375 293.7Q86.05 292.6375 86.05 290.21564ZM87.12813 290.21564Q87.12813 292.325 87.62813 293.02814Q88.12813 293.73126 88.84688 293.73126Q89.58125 293.73126 90.06563 293.02814Q90.56563 292.325 90.56563 290.21564Q90.56563 288.09064 90.06563 287.40314Q89.58125 286.7 88.83125 286.7Q88.1125 286.7 87.675 287.3094Q87.12813 288.09064 87.12813 290.21564Z" fill-rule="nonzero"/><path fill="#000000" d="M56.596874 205.13437L56.596874 206.15L50.909374 206.15Q50.909374 205.775 51.034374 205.41562Q51.253124 204.8375 51.721874 204.275Q52.20625 203.7125 53.1125 202.97812Q54.51875 201.82187 55.003124 201.15Q55.503124 200.47812 55.503124 199.88437Q55.503124 199.25937 55.05 198.8375Q54.596874 198.4 53.878124 198.4Q53.1125 198.4 52.659374 198.85312Q52.20625 199.30624 52.190624 200.11874L51.1125 200.00937Q51.221874 198.79062 51.940624 198.16562Q52.675 197.525 53.909374 197.525Q55.14375 197.525 55.8625 198.2125Q56.58125 198.9 56.58125 199.91562Q56.58125 200.43124 56.3625 200.93124Q56.159374 201.41562 55.659374 201.97812Q55.175 202.525 54.05 203.47812Q53.096874 204.275 52.815624 204.57187Q52.55 204.85312 52.378124 205.13437L56.596874 205.13437ZM58.05 201.91562Q58.05 200.38437 58.3625 199.4625Q58.675 198.525 59.284374 198.025Q59.909374 197.525 60.846874 197.525Q61.534374 197.525 62.05 197.80624Q62.58125 198.0875 62.925 198.61874Q63.26875 199.13437 63.45625 199.88437Q63.64375 200.63437 63.64375 201.91562Q63.64375 203.43124 63.33125 204.35312Q63.034374 205.275 62.409374 205.79062Q61.8 206.29062 60.846874 206.29062Q59.6125 206.29062 58.89375 205.4Q58.05 204.3375 58.05 201.91562ZM59.128124 201.91562Q59.128124 204.025 59.628124 204.72812Q60.128124 205.43124 60.846874 205.43124Q61.58125 205.43124 62.065624 204.72812Q62.565624 204.025 62.565624 201.91562Q62.565624 199.79062 62.065624 199.10312Q61.58125 198.4 60.83125 198.4Q60.1125 198.4 59.675 199.00937Q59.128124 199.79062 59.128124 201.91562ZM65.05 201.91562Q65.05 200.38437 65.3625 199.4625Q65.675 198.525 66.28438 198.025Q66.90938 197.525 67.84688 197.525Q68.53438 197.525 69.05 197.80624Q69.58125 198.0875 69.925 198.61874Q70.26875 199.13437 70.45625 199.88437Q70.64375 200.63437 70.64375 201.91562Q70.64375 203.43124 70.33125 204.35312Q70.03438 205.275 69.40938 205.79062Q68.8 206.29062 67.84688 206.29062Q66.6125 206.29062 65.89375 205.4Q65.05 204.3375 65.05 201.91562ZM66.12813 201.91562Q66.12813 204.025 66.62813 204.72812Q67.12813 205.43124 67.84688 205.43124Q68.58125 205.43124 69.06563 204.72812Q69.56563 204.025 69.56563 201.91562Q69.56563 199.79062 69.06563 199.10312Q68.58125 198.4 67.83125 198.4Q67.1125 198.4 66.675 199.00937Q66.12813 199.79062 66.12813 201.91562ZM72.05 201.91562Q72.05 200.38437 72.3625 199.4625Q72.675 198.525 73.28438 198.025Q73.90938 197.525 74.84688 197.525Q75.53438 197.525 76.05 197.80624Q76.58125 198.0875 76.925 198.61874Q77.26875 199.13437 77.45625 199.88437Q77.64375 200.63437 77.64375 201.91562Q77.64375 203.43124 77.33125 204.35312Q77.03438 205.275 76.40938 205.79062Q75.8 206.29062 74.84688 206.29062Q73.6125 206.29062 72.89375 205.4Q72.05 204.3375 72.05 201.91562ZM73.12813 201.91562Q73.12813 204.025 73.62813 204.72812Q74.12813 205.43124 74.84688 205.43124Q75.58125 205.43124 76.06563 204.72812Q76.56563 204.025 76.56563 201.91562Q76.56563 199.79062 76.06563 199.10312Q75.58125 198.4 74.83125 198.4Q74.1125 198.4 73.675 199.00937Q73.12813 199.79062 73.12813 201.91562ZM79.05 201.91562Q79.05 200.38437 79.3625 199.4625Q79.675 198.525 80.28438 198.025Q80.90938 197.525 81.84688 197.525Q82.53438 197.525 83.05 197.80624Q83.58125 198.0875 83.925 198.61874Q84.26875 199.13437 84.45625 199.88437Q84.64375 200.63437 84.64375 201.91562Q84.64375 203.43124 84.33125 204.35312Q84.03438 205.275 83.40938 205.79062Q82.8 206.29062 81.84688 206.29062Q80.6125 206.29062 79.89375 205.4Q79.05 204.3375 79.05 201.91562ZM80.12813 201.91562Q80.12813 204.025 80.62813 204.72812Q81.12813 205.43124 81.84688 205.43124Q82.58125 205.43124 83.06563 204.72812Q83.56563 204.025 83.56563 201.91562Q83.56563 199.79062 83.06563 199.10312Q82.58125 198.4 81.83125 198.4Q81.1125 198.4 80.675 199.00937Q80.12813 199.79062 80.12813 201.91562ZM86.05 201.91562Q86.05 200.38437 86.3625 199.4625Q86.675 198.525 87.28438 198.025Q87.90938 197.525 88.84688 197.525Q89.53438 197.525 90.05 197.80624Q90.58125 198.0875 90.925 198.61874Q91.26875 199.13437 91.45625 199.88437Q91.64375 200.63437 91.64375 201.91562Q91.64375 203.43124 91.33125 204.35312Q91.03438 205.275 90.40938 205.79062Q89.8 206.29062 88.84688 206.29062Q87.6125 206.29062 86.89375 205.4Q86.05 204.3375 86.05 201.91562ZM87.12813 201.91562Q87.12813 204.025 87.62813 204.72812Q88.12813 205.43124 88.84688 205.43124Q89.58125 205.43124 90.06563 204.72812Q90.56563 204.025 90.56563 201.91562Q90.56563 199.79062 90.06563 199.10312Q89.58125 198.4 88.83125 198.4Q88.1125 198.4 87.675 199.00937Q87.12813 199.79062 87.12813 201.91562Z" fill-rule="nonzero"/><path fill="#000000" d="M54.425 117.85L54.425 115.7875L50.70625 115.7875L50.70625 114.81875L54.628124 109.25625L55.4875 109.25625L55.4875 114.81875L56.64375 114.81875L56.64375 115.7875L55.4875 115.7875L55.4875 117.85L54.425 117.85ZM54.425 114.81875L54.425 110.95937L51.7375 114.81875L54.425 114.81875ZM58.05 113.61562Q58.05 112.08437 58.3625 111.1625Q58.675 110.225 59.284374 109.725Q59.909374 109.225 60.846874 109.225Q61.534374 109.225 62.05 109.50625Q62.58125 109.7875 62.925 110.31875Q63.26875 110.83437 63.45625 111.58437Q63.64375 112.33437 63.64375 113.61562Q63.64375 115.13125 63.33125 116.05312Q63.034374 116.975 62.409374 117.49062Q61.8 117.99062 60.846874 117.99062Q59.6125 117.99062 58.89375 117.1Q58.05 116.0375 58.05 113.61562ZM59.128124 113.61562Q59.128124 115.725 59.628124 116.42812Q60.128124 117.13125 60.846874 117.13125Q61.58125 117.13125 62.065624 116.42812Q62.565624 115.725 62.565624 113.61562Q62.565624 111.49062 62.065624 110.80312Q61.58125 110.1 60.83125 110.1Q60.1125 110.1 59.675 110.70937Q59.128124 111.49062 59.128124 113.61562ZM65.05 113.61562Q65.05 112.08437 65.3625 111.1625Q65.675 110.225 66.28438 109.725Q66.90938 109.225 67.84688 109.225Q68.53438 109.225 69.05 109.50625Q69.58125 109.7875 69.925 110.31875Q70.26875 110.83437 70.45625 111.58437Q70.64375 112.33437 70.64375 113.61562Q70.64375 115.13125 70.33125 116.05312Q70.03438 116.975 69.40938 117.49062Q68.8 117.99062 67.84688 117.99062Q66.6125 117.99062 65.89375 117.1Q65.05 116.0375 65.05 113.61562ZM66.12813 113.61562Q66.12813 115.725 66.62813 116.42812Q67.12813 117.13125 67.84688 117.13125Q68.58125 117.13125 69.06563 116.42812Q69.56563 115.725 69.56563 113.61562Q69.56563 111.49062 69.06563 110.80312Q68.58125 110.1 67.83125 110.1Q67.1125 110.1 66.675 110.70937Q66.12813 111.49062 66.12813 113.61562ZM72.05 113.61562Q72.05 112.08437 72.3625 111.1625Q72.675 110.225 73.28438 109.725Q73.90938 109.225 74.84688 109.225Q75.53438 109.225 76.05 109.50625Q76.58125 109.7875 76.925 110.31875Q77.26875 110.83437 77.45625 111.58437Q77.64375 112.33437 77.64375 113.61562Q77.64375 115.13125 77.33125 116.05312Q77.03438 116.975 76.40938 117.49062Q75.8 117.99062 74.84688 117.99062Q73.6125 117.99062 72.89375 117.1Q72.05 116.0375 72.05 113.61562ZM73.12813 113.61562Q73.12813 115.725 73.62813 116.42812Q74.12813 117.13125 74.84688 117.13125Q75.58125 117.13125 76.06563 116.42812Q76.56563 115.725 76.56563 113.61562Q76.56563 111.49062 76.06563 110.80312Q75.58125 110.1 74.83125 110.1Q74.1125 110.1 73.675 110.70937Q73.12813 111.49062 73.12813 113.61562ZM79.05 113.61562Q79.05 112.08437 79.3625 111.1625Q79.675 110.225 80.28438 109.725Q80.90938 109.225 81.84688 109.225Q82.53438 109.225 83.05 109.50625Q83.58125 109.7875 83.925 110.31875Q84.26875 110.83437 84.45625 111.58437Q84.64375 112.33437 84.64375 113.61562Q84.64375 115.13125 84.33125 116.05312Q84.03438 116.975 83.40938 117.49062Q82.8 117.99062 81.84688 117.99062Q80.6125 117.99062 79.89375 117.1Q79.05 116.0375 79.05 113.61562ZM80.12813 113.61562Q80.12813 115.725 80.62813 116.42812Q81.12813 117.13125 81.84688 117.13125Q82.58125 117.13125 83.06563 116.42812Q83.56563 115.725 83.56563 113.61562Q83.56563 111.49062 83.06563 110.80312Q82.58125 110.1 81.83125 110.1Q81.1125 110.1 80.675 110.70937Q80.12813 111.49062 80.12813 113.61562ZM86.05 113.61562Q86.05 112.08437 86.3625 111.1625Q86.675 110.225 87.28438 109.725Q87.90938 109.225 88.84688 109.225Q89.53438 109.225 90.05 109.50625Q90.58125 109.7875 90.925 110.31875Q91.26875 110.83437 91.45625 111.58437Q91.64375 112.33437 91.64375 113.61562Q91.64375 115.13125 91.33125 116.05312Q91.03438 116.975 90.40938 117.49062Q89.8 117.99062 88.84688 117.99062Q87.6125 117.99062 86.89375 117.1Q86.05 116.0375 86.05 113.61562ZM87.12813 113.61562Q87.12813 115.725 87.62813 116.42812Q88.12813 117.13125 88.84688 117.13125Q89.58125 117.13125 90.06563 116.42812Q90.56563 115.725 90.56563 113.61562Q90.56563 111.49062 90.06563 110.80312Q89.58125 110.1 88.83125 110.1Q88.1125 110.1 87.675 110.70937Q87.12813 111.49062 87.12813 113.61562Z" fill-rule="nonzero"/><path fill="#000000" d="M56.51875 23.065624L55.471874 23.14375Q55.33125 22.51875 55.08125 22.2375Q54.64375 21.784374 54.01875 21.784374Q53.51875 21.784374 53.128124 22.065624Q52.64375 22.440624 52.346874 23.14375Q52.065624 23.83125 52.05 25.1125Q52.425 24.534374 52.971874 24.253124Q53.534374 23.971874 54.14375 23.971874Q55.190624 23.971874 55.925 24.753124Q56.675 25.534374 56.675 26.753124Q56.675 27.565624 56.315624 28.26875Q55.971874 28.95625 55.3625 29.33125Q54.753124 29.690624 53.9875 29.690624Q52.659374 29.690624 51.83125 28.721874Q51.003124 27.753124 51.003124 25.534374Q51.003124 23.034374 51.925 21.909374Q52.721874 20.925 54.08125 20.925Q55.096874 20.925 55.7375 21.503124Q56.39375 22.065624 56.51875 23.065624ZM52.221874 26.76875Q52.221874 27.315624 52.440624 27.815624Q52.675 28.3 53.08125 28.565624Q53.503124 28.83125 53.971874 28.83125Q54.628124 28.83125 55.1125 28.3Q55.596874 27.753124 55.596874 26.83125Q55.596874 25.940624 55.1125 25.425Q54.64375 24.909374 53.925 24.909374Q53.20625 24.909374 52.70625 25.425Q52.221874 25.940624 52.221874 26.76875ZM58.05 25.315624Q58.05 23.784374 58.3625 22.8625Q58.675 21.925 59.284374 21.425Q59.909374 20.925 60.846874 20.925Q61.534374 20.925 62.05 21.20625Q62.58125 21.4875 62.925 22.01875Q63.26875 22.534374 63.45625 23.284374Q63.64375 24.034374 63.64375 25.315624Q63.64375 26.83125 63.33125 27.753124Q63.034374 28.675 62.409374 29.190624Q61.8 29.690624 60.846874 29.690624Q59.6125 29.690624 58.89375 28.8Q58.05 27.7375 58.05 25.315624ZM59.128124 25.315624Q59.128124 27.425 59.628124 28.128124Q60.128124 28.83125 60.846874 28.83125Q61.58125 28.83125 62.065624 28.128124Q62.565624 27.425 62.565624 25.315624Q62.565624 23.190624 62.065624 22.503124Q61.58125 21.8 60.83125 21.8Q60.1125 21.8 59.675 22.409374Q59.128124 23.190624 59.128124 25.315624ZM65.05 25.315624Q65.05 23.784374 65.3625 22.8625Q65.675 21.925 66.28438 21.425Q66.90938 20.925 67.84688 20.925Q68.53438 20.925 69.05 21.20625Q69.58125 21.4875 69.925 22.01875Q70.26875 22.534374 70.45625 23.284374Q70.64375 24.034374 70.64375 25.315624Q70.64375 26.83125 70.33125 27.753124Q70.03438 28.675 69.40938 29.190624Q68.8 29.690624 67.84688 29.690624Q66.6125 29.690624 65.89375 28.8Q65.05 27.7375 65.05 25.315624ZM66.12813 25.315624Q66.12813 27.425 66.62813 28.128124Q67.12813 28.83125 67.84688 28.83125Q68.58125 28.83125 69.06563 28.128124Q69.56563 27.425 69.56563 25.315624Q69.56563 23.190624 69.06563 22.503124Q68.58125 21.8 67.83125 21.8Q67.1125 21.8 66.675 22.409374Q66.12813 23.190624 66.12813 25.315624ZM72.05 25.315624Q72.05 23.784374 72.3625 22.8625Q72.675 21.925 73.28438 21.425Q73.90938 20.925 74.84688 20.925Q75.53438 20.925 76.05 21.20625Q76.58125 21.4875 76.925 22.01875Q77.26875 22.534374 77.45625 23.284374Q77.64375 24.034374 77.64375 25.315624Q77.64375 26.83125 77.33125 27.753124Q77.03438 28.675 76.40938 29.190624Q75.8 29.690624 74.84688 29.690624Q73.6125 29.690624 72.89375 28.8Q72.05 27.7375 72.05 25.315624ZM73.12813 25.315624Q73.12813 27.425 73.62813 28.128124Q74.12813 28.83125 74.84688 28.83125Q75.58125 28.83125 76.06563 28.128124Q76.56563 27.425 76.56563 25.315624Q76.56563 23.190624 76.06563 22.503124Q75.58125 21.8 74.83125 21.8Q74.1125 21.8 73.675 22.409374Q73.12813 23.190624 73.12813 25.315624ZM79.05 25.315624Q79.05 23.784374 79.3625 22.8625Q79.675 21.925 80.28438 21.425Q80.90938 20.925 81.84688 20.925Q82.53438 20.925 83.05 21.20625Q83.58125 21.4875 83.925 22.01875Q84.26875 22.534374 84.45625 23.284374Q84.64375 24.034374 84.64375 25.315624Q84.64375 26.83125 84.33125 27.753124Q84.03438 28.675 83.40938 29.190624Q82.8 29.690624 81.84688 29.690624Q80.6125 29.690624 79.89375 28.8Q79.05 27.7375 79.05 25.315624ZM80.12813 25.315624Q80.12813 27.425 80.62813 28.128124Q81.12813 28.83125 81.84688 28.83125Q82.58125 28.83125 83.06563 28.128124Q83.56563 27.425 83.56563 25.315624Q83.56563 23.190624 83.06563 22.503124Q82.58125 21.8 81.83125 21.8Q81.1125 21.8 80.675 22.409374Q80.12813 23.190624 80.12813 25.315624ZM86.05 25.315624Q86.05 23.784374 86.3625 22.8625Q86.675 21.925 87.28438 21.425Q87.90938 20.925 88.84688 20.925Q89.53438 20.925 90.05 21.20625Q90.58125 21.4875 90.925 22.01875Q91.26875 22.534374 91.45625 23.284374Q91.64375 24.034374 91.64375 25.315624Q91.64375 26.83125 91.33125 27.753124Q91.03438 28.675 90.40938 29.190624Q89.8 29.690624 88.84688 29.690624Q87.6125 29.690624 86.89375 28.8Q86.05 27.7375 86.05 25.315624ZM87.12813 25.315624Q87.12813 27.425 87.62813 28.128124Q88.12813 28.83125 88.84688 28.83125Q89.58125 28.83125 90.06563 28.128124Q90.56563 27.425 90.56563 25.315624Q90.56563 23.190624 90.06563 22.503124Q89.58125 21.8 88.83125 21.8Q88.1125 21.8 87.675 22.409374Q87.12813 23.190624 87.12813 25.315624Z" fill-rule="nonzero"/><path fill="#000000" d="M132.85164 307.45L132.85164 306.52814Q132.11726 307.59064 130.86726 307.59064Q130.32039 307.59064 129.83601 307.3875Q129.36726 307.16876 129.13289 306.85626Q128.89851 306.52814 128.80476 306.0594Q128.74226 305.7625 128.74226 305.075L128.74226 301.23126L129.80476 301.23126L129.80476 304.6844Q129.80476 305.4969 129.86726 305.79376Q129.96101 306.2 130.27351 306.45Q130.60164 306.6844 131.08601 306.6844Q131.55476 306.6844 131.96101 306.45Q132.38289 306.2 132.55476 305.77814Q132.74226 305.35626 132.74226 304.5594L132.74226 301.23126L133.78914 301.23126L133.78914 307.45L132.85164 307.45ZM135.77351 307.45L135.77351 301.23126L136.71101 301.23126L136.71101 302.10626Q137.39851 301.09064 138.69539 301.09064Q139.25789 301.09064 139.72664 301.29376Q140.21101 301.4969 140.44539 301.825Q140.67976 302.15314 140.77351 302.59064Q140.82039 302.8875 140.82039 303.6219L140.82039 307.45L139.77351 307.45L139.77351 303.66876Q139.77351 303.0125 139.64851 302.7Q139.52351 302.3875 139.21101 302.2Q138.89851 301.9969 138.47664 301.9969Q137.80476 301.9969 137.30476 302.4344Q136.82039 302.85626 136.82039 304.04376L136.82039 307.45L135.77351 307.45ZM142.77351 307.45L142.77351 301.23126L143.71101 301.23126L143.71101 302.10626Q144.00789 301.6375 144.49226 301.3719Q144.97664 301.09064 145.60164 301.09064Q146.28914 301.09064 146.72664 301.3719Q147.17976 301.65314 147.35164 302.16876Q148.10164 301.09064 149.27351 301.09064Q150.21101 301.09064 150.69539 301.60626Q151.19539 302.10626 151.19539 303.1844L151.19539 307.45L150.14851 307.45L150.14851 303.52814Q150.14851 302.90314 150.03914 302.6219Q149.94539 302.34064 149.67976 302.16876Q149.41414 301.9969 149.03914 301.9969Q148.38289 301.9969 147.94539 302.4344Q147.52351 302.8719 147.52351 303.84064L147.52351 307.45L146.46101 307.45L146.46101 303.40314Q146.46101 302.7 146.19539 302.35626Q145.94539 301.9969 145.36726 301.9969Q144.91414 301.9969 144.53914 302.23126Q144.16414 302.46564 143.99226 302.91876Q143.82039 303.3719 143.82039 304.21564L143.82039 307.45L142.77351 307.45ZM157.83601 306.6844Q157.24226 307.1844 156.69539 307.3875Q156.16414 307.59064 155.53914 307.59064Q154.50789 307.59064 153.96101 307.09064Q153.41414 306.59064 153.41414 305.8094Q153.41414 305.35626 153.61726 304.98126Q153.82039 304.59064 154.16414 304.3719Q154.50789 304.1375 154.92976 304.02814Q155.22664 303.9344 155.86726 303.85626Q157.13289 303.71564 157.74226 303.4969Q157.74226 303.27814 157.74226 303.23126Q157.74226 302.575 157.44539 302.3094Q157.03914 301.96564 156.24226 301.96564Q155.50789 301.96564 155.14851 302.23126Q154.78914 302.48126 154.61726 303.1375L153.58601 302.9969Q153.72664 302.34064 154.05476 301.9344Q154.38289 301.52814 154.99226 301.3094Q155.60164 301.09064 156.39851 301.09064Q157.19539 301.09064 157.69539 301.27814Q158.19539 301.46564 158.42976 301.7469Q158.66414 302.02814 158.75789 302.46564Q158.80476 302.73126 158.80476 303.4344L158.80476 304.84064Q158.80476 306.3094 158.86726 306.7Q158.94539 307.09064 159.14851 307.45L158.03914 307.45Q157.88289 307.1219 157.83601 306.6844ZM157.74226 304.325Q157.16414 304.5594 156.02351 304.73126Q155.36726 304.825 155.10164 304.95Q154.83601 305.0594 154.67976 305.27814Q154.53914 305.4969 154.53914 305.77814Q154.53914 306.2 154.85164 306.48126Q155.17976 306.7625 155.78914 306.7625Q156.39851 306.7625 156.86726 306.4969Q157.35164 306.23126 157.57039 305.7625Q157.74226 305.40314 157.74226 304.71564L157.74226 304.325ZM160.75789 307.45L160.75789 301.23126L161.71101 301.23126L161.71101 302.16876Q162.07039 301.5125 162.36726 301.3094Q162.67976 301.09064 163.05476 301.09064Q163.58601 301.09064 164.13289 301.41876L163.77351 302.40314Q163.38289 302.16876 163.00789 302.16876Q162.64851 302.16876 162.36726 302.3875Q162.10164 302.59064 161.99226 302.96564Q161.80476 303.52814 161.80476 304.1844L161.80476 307.45L160.75789 307.45ZM164.35164 305.59064L165.38289 305.4344Q165.47664 306.0594 165.86726 306.3875Q166.27351 306.71564 167.00789 306.71564Q167.72664 306.71564 168.07039 306.4344Q168.42976 306.1375 168.42976 305.73126Q168.42976 305.3719 168.11726 305.16876Q167.89851 305.02814 167.03914 304.8094Q165.88289 304.5125 165.42976 304.3094Q164.99226 304.09064 164.75789 303.71564Q164.52351 303.34064 164.52351 302.8719Q164.52351 302.46564 164.71101 302.10626Q164.89851 301.7469 165.22664 301.5125Q165.47664 301.34064 165.89851 301.21564Q166.32039 301.09064 166.82039 301.09064Q167.53914 301.09064 168.08601 301.3094Q168.64851 301.5125 168.91414 301.8719Q169.17976 302.23126 169.27351 302.825L168.24226 302.96564Q168.17976 302.4969 167.83601 302.23126Q167.50789 301.95 166.88289 301.95Q166.16414 301.95 165.85164 302.2Q165.53914 302.4344 165.53914 302.7625Q165.53914 302.96564 165.66414 303.1219Q165.80476 303.29376 166.07039 303.40314Q166.22664 303.46564 167.00789 303.66876Q168.13289 303.98126 168.57039 304.16876Q169.00789 304.35626 169.25789 304.71564Q169.50789 305.075 169.50789 305.6219Q169.50789 306.15314 169.19539 306.6219Q168.89851 307.075 168.32039 307.34064Q167.74226 307.59064 167.00789 307.59064Q165.78914 307.59064 165.14851 307.09064Q164.52351 306.575 164.35164 305.59064ZM171.77351 307.45L171.77351 298.85626L172.82039 298.85626L172.82039 301.9344Q173.55476 301.09064 174.67976 301.09064Q175.38289 301.09064 175.88289 301.3719Q176.39851 301.6375 176.61726 302.1219Q176.83601 302.59064 176.83601 303.5125L176.83601 307.45L175.78914 307.45L175.78914 303.5125Q175.78914 302.71564 175.44539 302.35626Q175.10164 301.9969 174.47664 301.9969Q174.00789 301.9969 173.58601 302.2469Q173.17976 302.48126 172.99226 302.90314Q172.82039 303.3094 172.82039 304.04376L172.82039 307.45L171.77351 307.45ZM182.83601 306.6844Q182.24226 307.1844 181.69539 307.3875Q181.16414 307.59064 180.53914 307.59064Q179.50789 307.59064 178.96101 307.09064Q178.41414 306.59064 178.41414 305.8094Q178.41414 305.35626 178.61726 304.98126Q178.82039 304.59064 179.16414 304.3719Q179.50789 304.1375 179.92976 304.02814Q180.22664 303.9344 180.86726 303.85626Q182.13289 303.71564 182.74226 303.4969Q182.74226 303.27814 182.74226 303.23126Q182.74226 302.575 182.44539 302.3094Q182.03914 301.96564 181.24226 301.96564Q180.50789 301.96564 180.14851 302.23126Q179.78914 302.48126 179.61726 303.1375L178.58601 302.9969Q178.72664 302.34064 179.05476 301.9344Q179.38289 301.52814 179.99226 301.3094Q180.60164 301.09064 181.39851 301.09064Q182.19539 301.09064 182.69539 301.27814Q183.19539 301.46564 183.42976 301.7469Q183.66414 302.02814 183.75789 302.46564Q183.80476 302.73126 183.80476 303.4344L183.80476 304.84064Q183.80476 306.3094 183.86726 306.7Q183.94539 307.09064 184.14851 307.45L183.03914 307.45Q182.88289 307.1219 182.83601 306.6844ZM182.74226 304.325Q182.16414 304.5594 181.02351 304.73126Q180.36726 304.825 180.10164 304.95Q179.83601 305.0594 179.67976 305.27814Q179.53914 305.4969 179.53914 305.77814Q179.53914 306.2 179.85164 306.48126Q180.17976 306.7625 180.78914 306.7625Q181.39851 306.7625 181.86726 306.4969Q182.35164 306.23126 182.57039 305.7625Q182.74226 305.40314 182.74226 304.71564L182.74226 304.325ZM185.74226 307.45L185.74226 298.85626L186.80476 298.85626L186.80476 307.45L185.74226 307.45ZM188.74226 307.45L188.74226 298.85626L189.80476 298.85626L189.80476 307.45L188.74226 307.45Z" fill-rule="nonzero"/><path fill="#000000" d="M148.57039 320.5125L148.72664 321.4344Q148.27351 321.52814 147.92976 321.52814Q147.35164 321.52814 147.03914 321.35626Q146.72664 321.16876 146.58601 320.8719Q146.46101 320.575 146.46101 319.6219L146.46101 316.04376L145.69539 316.04376L145.69539 315.23126L146.46101 315.23126L146.46101 313.6844L147.50789 313.0594L147.50789 315.23126L148.57039 315.23126L148.57039 316.04376L147.50789 316.04376L147.50789 319.6844Q147.50789 320.1375 147.55476 320.2625Q147.61726 320.3875 147.74226 320.46564Q147.86726 320.54376 148.10164 320.54376Q148.28914 320.54376 148.57039 320.5125ZM150.41414 321.45L148.50789 315.23126L149.60164 315.23126L150.58601 318.825L150.96101 320.15314Q150.99226 320.0594 151.28914 318.8719L152.27351 315.23126L153.35164 315.23126L154.28914 318.84064L154.60164 320.02814L154.96101 318.825L156.02351 315.23126L157.05476 315.23126L155.10164 321.45L154.00789 321.45L153.02351 317.71564L152.77351 316.66876L151.52351 321.45L150.41414 321.45ZM158.27351 314.075L158.27351 312.85626L159.33601 312.85626L159.33601 314.075L158.27351 314.075ZM158.27351 321.45L158.27351 315.23126L159.33601 315.23126L159.33601 321.45L158.27351 321.45ZM165.33601 319.16876L166.36726 319.3094Q166.19539 320.3719 165.49226 320.98126Q164.78914 321.59064 163.77351 321.59064Q162.49226 321.59064 161.71101 320.7625Q160.94539 319.91876 160.94539 318.35626Q160.94539 317.35626 161.27351 316.60626Q161.61726 315.84064 162.28914 315.46564Q162.97664 315.09064 163.78914 315.09064Q164.78914 315.09064 165.42976 315.60626Q166.08601 316.10626 166.27351 317.0594L165.24226 317.21564Q165.10164 316.59064 164.72664 316.27814Q164.35164 315.95 163.82039 315.95Q163.02351 315.95 162.52351 316.52814Q162.02351 317.09064 162.02351 318.325Q162.02351 319.59064 162.50789 320.15314Q162.99226 320.71564 163.75789 320.71564Q164.38289 320.71564 164.78914 320.34064Q165.21101 319.96564 165.33601 319.16876ZM171.52351 319.45L172.61726 319.575Q172.36726 320.52814 171.66414 321.0594Q170.96101 321.59064 169.88289 321.59064Q168.52351 321.59064 167.71101 320.7469Q166.91414 319.90314 166.91414 318.3875Q166.91414 316.825 167.72664 315.96564Q168.53914 315.09064 169.82039 315.09064Q171.07039 315.09064 171.85164 315.9344Q172.64851 316.77814 172.64851 318.325Q172.64851 318.41876 172.64851 318.60626L168.00789 318.60626Q168.07039 319.6375 168.58601 320.1844Q169.10164 320.71564 169.88289 320.71564Q170.46101 320.71564 170.86726 320.41876Q171.28914 320.10626 171.52351 319.45ZM168.07039 317.7469L171.53914 317.7469Q171.47664 316.95 171.14851 316.5594Q170.63289 315.95 169.83601 315.95Q169.10164 315.95 168.60164 316.4344Q168.11726 316.91876 168.07039 317.7469Z" fill-rule="nonzero"/><path fill="#000000" d="M226.51956 307.45L226.51956 301.23126L227.47269 301.23126L227.47269 302.16876Q227.83206 301.5125 228.12894 301.3094Q228.44144 301.09064 228.81644 301.09064Q229.34769 301.09064 229.89456 301.41876L229.53519 302.40314Q229.14456 302.16876 228.76956 302.16876Q228.41019 302.16876 228.12894 302.3875Q227.86331 302.59064 227.75394 302.96564Q227.56644 303.52814 227.56644 304.1844L227.56644 307.45L226.51956 307.45ZM234.59769 306.6844Q234.00394 307.1844 233.45706 307.3875Q232.92581 307.59064 232.30081 307.59064Q231.26956 307.59064 230.72269 307.09064Q230.17581 306.59064 230.17581 305.8094Q230.17581 305.35626 230.37894 304.98126Q230.58206 304.59064 230.92581 304.3719Q231.26956 304.1375 231.69144 304.02814Q231.98831 303.9344 232.62894 303.85626Q233.89456 303.71564 234.50394 303.4969Q234.50394 303.27814 234.50394 303.23126Q234.50394 302.575 234.20706 302.3094Q233.80081 301.96564 233.00394 301.96564Q232.26956 301.96564 231.91019 302.23126Q231.55081 302.48126 231.37894 303.1375L230.34769 302.9969Q230.48831 302.34064 230.81644 301.9344Q231.14456 301.52814 231.75394 301.3094Q232.36331 301.09064 233.16019 301.09064Q233.95706 301.09064 234.45706 301.27814Q234.95706 301.46564 235.19144 301.7469Q235.42581 302.02814 235.51956 302.46564Q235.56644 302.73126 235.56644 303.4344L235.56644 304.84064Q235.56644 306.3094 235.62894 306.7Q235.70706 307.09064 235.91019 307.45L234.80081 307.45Q234.64456 307.1219 234.59769 306.6844ZM234.50394 304.325Q233.92581 304.5594 232.78519 304.73126Q232.12894 304.825 231.86331 304.95Q231.59769 305.0594 231.44144 305.27814Q231.30081 305.4969 231.30081 305.77814Q231.30081 306.2 231.61331 306.48126Q231.94144 306.7625 232.55081 306.7625Q233.16019 306.7625 233.62894 306.4969Q234.11331 306.23126 234.33206 305.7625Q234.50394 305.40314 234.50394 304.71564L234.50394 304.325ZM238.67581 307.45L236.76956 301.23126L237.86331 301.23126L238.84769 304.825L239.22269 306.15314Q239.25394 306.0594 239.55081 304.8719L240.53519 301.23126L241.61331 301.23126L242.55081 304.84064L242.86331 306.02814L243.22269 304.825L244.28519 301.23126L245.31644 301.23126L243.36331 307.45L242.26956 307.45L241.28519 303.71564L241.03519 302.66876L239.78519 307.45L238.67581 307.45ZM249.53519 307.45L249.53519 301.23126L250.47269 301.23126L250.47269 302.10626Q250.76956 301.6375 251.25394 301.3719Q251.73831 301.09064 252.36331 301.09064Q253.05081 301.09064 253.48831 301.3719Q253.94144 301.65314 254.11331 302.16876Q254.86331 301.09064 256.0352 301.09064Q256.9727 301.09064 257.45706 301.60626Q257.95706 302.10626 257.95706 303.1844L257.95706 307.45L256.9102 307.45L256.9102 303.52814Q256.9102 302.90314 256.8008 302.6219Q256.70706 302.34064 256.44144 302.16876Q256.1758 301.9969 255.80081 301.9969Q255.14456 301.9969 254.70706 302.4344Q254.28519 302.8719 254.28519 303.84064L254.28519 307.45L253.22269 307.45L253.22269 303.40314Q253.22269 302.7 252.95706 302.35626Q252.70706 301.9969 252.12894 301.9969Q251.67581 301.9969 251.30081 302.23126Q250.92581 302.46564 250.75394 302.91876Q250.58206 303.3719 250.58206 304.21564L250.58206 307.45L249.53519 307.45ZM264.5977 306.6844Q264.00394 307.1844 263.45706 307.3875Q262.9258 307.59064 262.3008 307.59064Q261.26956 307.59064 260.7227 307.09064Q260.1758 306.59064 260.1758 305.8094Q260.1758 305.35626 260.37894 304.98126Q260.58206 304.59064 260.9258 304.3719Q261.26956 304.1375 261.69144 304.02814Q261.9883 303.9344 262.62894 303.85626Q263.89456 303.71564 264.50394 303.4969Q264.50394 303.27814 264.50394 303.23126Q264.50394 302.575 264.20706 302.3094Q263.8008 301.96564 263.00394 301.96564Q262.26956 301.96564 261.9102 302.23126Q261.5508 302.48126 261.37894 303.1375L260.3477 302.9969Q260.4883 302.34064 260.81644 301.9344Q261.14456 301.52814 261.75394 301.3094Q262.3633 301.09064 263.1602 301.09064Q263.95706 301.09064 264.45706 301.27814Q264.95706 301.46564 265.19144 301.7469Q265.4258 302.02814 265.51956 302.46564Q265.56644 302.73126 265.56644 303.4344L265.56644 304.84064Q265.56644 306.3094 265.62894 306.7Q265.70706 307.09064 265.9102 307.45L264.8008 307.45Q264.64456 307.1219 264.5977 306.6844ZM264.50394 304.325Q263.9258 304.5594 262.7852 304.73126Q262.12894 304.825 261.8633 304.95Q261.5977 305.0594 261.44144 305.27814Q261.3008 305.4969 261.3008 305.77814Q261.3008 306.2 261.6133 306.48126Q261.94144 306.7625 262.5508 306.7625Q263.1602 306.7625 263.62894 306.4969Q264.1133 306.23126 264.33206 305.7625Q264.50394 305.40314 264.50394 304.71564L264.50394 304.325ZM267.5352 309.84064L267.5352 301.23126L268.4883 301.23126L268.4883 302.02814Q268.83206 301.5594 269.25394 301.325Q269.69144 301.09064 270.3008 301.09064Q271.0977 301.09064 271.70706 301.4969Q272.31644 301.90314 272.6133 302.65314Q272.9258 303.40314 272.9258 304.29376Q272.9258 305.2469 272.58206 306.0125Q272.25394 306.77814 271.5977 307.1844Q270.94144 307.59064 270.2227 307.59064Q269.69144 307.59064 269.26956 307.3719Q268.8477 307.1375 268.58206 306.8094L268.58206 309.84064L267.5352 309.84064ZM268.4883 304.3719Q268.4883 305.575 268.9727 306.15314Q269.45706 306.71564 270.14456 306.71564Q270.8477 306.71564 271.3477 306.1219Q271.8477 305.52814 271.8477 304.27814Q271.8477 303.09064 271.3633 302.5125Q270.87894 301.91876 270.19144 301.91876Q269.51956 301.91876 269.00394 302.54376Q268.4883 303.16876 268.4883 304.3719Z" fill-rule="nonzero"/><path fill="#000000" d="M315.59375 307.96564L316.625 308.1219Q316.6875 308.59064 316.98438 308.8094Q317.375 309.10626 318.04688 309.10626Q318.78125 309.10626 319.17188 308.8094Q319.57812 308.5125 319.71875 307.9969Q319.8125 307.66876 319.79688 306.6375Q319.10938 307.45 318.07812 307.45Q316.79688 307.45 316.09375 306.52814Q315.39062 305.59064 315.39062 304.3094Q315.39062 303.41876 315.70312 302.66876Q316.03125 301.90314 316.64062 301.4969Q317.25 301.09064 318.07812 301.09064Q319.1875 301.09064 319.90625 301.98126L319.90625 301.23126L320.875 301.23126L320.875 306.60626Q320.875 308.0594 320.57812 308.66876Q320.28125 309.27814 319.64062 309.6219Q319.0 309.98126 318.0625 309.98126Q316.95312 309.98126 316.26562 309.48126Q315.57812 308.98126 315.59375 307.96564ZM316.46875 304.23126Q316.46875 305.45 316.95312 306.0125Q317.4375 306.575 318.17188 306.575Q318.90625 306.575 319.39062 306.0125Q319.89062 305.45 319.89062 304.2625Q319.89062 303.1219 319.375 302.54376Q318.875 301.96564 318.15625 301.96564Q317.45312 301.96564 316.95312 302.54376Q316.46875 303.10626 316.46875 304.23126ZM322.40625 304.34064Q322.40625 302.60626 323.35938 301.77814Q324.15625 301.09064 325.3125 301.09064Q326.59375 301.09064 327.40625 301.9344Q328.23438 302.7625 328.23438 304.2469Q328.23438 305.45 327.875 306.1375Q327.51562 306.825 326.8125 307.21564Q326.125 307.59064 325.3125 307.59064Q324.01562 307.59064 323.20312 306.7625Q322.40625 305.91876 322.40625 304.34064ZM323.48438 304.34064Q323.48438 305.52814 324.0 306.1219Q324.53125 306.71564 325.3125 306.71564Q326.10938 306.71564 326.625 306.1219Q327.14062 305.52814 327.14062 304.3094Q327.14062 303.15314 326.60938 302.5594Q326.09375 301.96564 325.3125 301.96564Q324.53125 301.96564 324.0 302.5594Q323.48438 303.1375 323.48438 304.34064ZM336.85938 305.16876L337.89062 305.3094Q337.71875 306.3719 337.01562 306.98126Q336.3125 307.59064 335.29688 307.59064Q334.01562 307.59064 333.23438 306.7625Q332.46875 305.91876 332.46875 304.35626Q332.46875 303.35626 332.79688 302.60626Q333.14062 301.84064 333.8125 301.46564Q334.5 301.09064 335.3125 301.09064Q336.3125 301.09064 336.95312 301.60626Q337.60938 302.10626 337.79688 303.0594L336.76562 303.21564Q336.625 302.59064 336.25 302.27814Q335.875 301.95 335.34375 301.95Q334.54688 301.95 334.04688 302.52814Q333.54688 303.09064 333.54688 304.325Q333.54688 305.59064 334.03125 306.15314Q334.51562 306.71564 335.28125 306.71564Q335.90625 306.71564 336.3125 306.34064Q336.73438 305.96564 336.85938 305.16876ZM338.40625 304.34064Q338.40625 302.60626 339.35938 301.77814Q340.15625 301.09064 341.3125 301.09064Q342.59375 301.09064 343.40625 301.9344Q344.23438 302.7625 344.23438 304.2469Q344.23438 305.45 343.875 306.1375Q343.51562 306.825 342.8125 307.21564Q342.125 307.59064 341.3125 307.59064Q340.01562 307.59064 339.20312 306.7625Q338.40625 305.91876 338.40625 304.34064ZM339.48438 304.34064Q339.48438 305.52814 340.0 306.1219Q340.53125 306.71564 341.3125 306.71564Q342.10938 306.71564 342.625 306.1219Q343.14062 305.52814 343.14062 304.3094Q343.14062 303.15314 342.60938 302.5594Q342.09375 301.96564 341.3125 301.96564Q340.53125 301.96564 340.0 302.5594Q339.48438 303.1375 339.48438 304.34064ZM349.82812 307.45L349.82812 306.66876Q349.23438 307.59064 348.09375 307.59064Q347.34375 307.59064 346.71875 307.1844Q346.09375 306.7625 345.75 306.02814Q345.40625 305.29376 345.40625 304.34064Q345.40625 303.41876 345.71875 302.65314Q346.03125 301.8875 346.65625 301.4969Q347.28125 301.09064 348.04688 301.09064Q348.60938 301.09064 349.04688 301.325Q349.48438 301.5594 349.76562 301.9344L349.76562 298.85626L350.8125 298.85626L350.8125 307.45L349.82812 307.45ZM346.5 304.34064Q346.5 305.54376 347.0 306.1375Q347.5 306.71564 348.1875 306.71564Q348.875 306.71564 349.35938 306.15314Q349.84375 305.59064 349.84375 304.4344Q349.84375 303.15314 349.34375 302.5594Q348.85938 301.96564 348.14062 301.96564Q347.4375 301.96564 346.96875 302.54376Q346.5 303.10626 346.5 304.34064ZM357.04688 305.45L358.14062 305.575Q357.89062 306.52814 357.1875 307.0594Q356.48438 307.59064 355.40625 307.59064Q354.04688 307.59064 353.23438 306.7469Q352.4375 305.90314 352.4375 304.3875Q352.4375 302.825 353.25 301.96564Q354.0625 301.09064 355.34375 301.09064Q356.59375 301.09064 357.375 301.9344Q358.17188 302.77814 358.17188 304.325Q358.17188 304.41876 358.17188 304.60626L353.53125 304.60626Q353.59375 305.6375 354.10938 306.1844Q354.625 306.71564 355.40625 306.71564Q355.98438 306.71564 356.39062 306.41876Q356.8125 306.10626 357.04688 305.45ZM353.59375 303.7469L357.0625 303.7469Q357.0 302.95 356.67188 302.5594Q356.15625 301.95 355.35938 301.95Q354.625 301.95 354.125 302.4344Q353.64062 302.91876 353.59375 303.7469ZM363.85938 305.16876L364.89062 305.3094Q364.71875 306.3719 364.01562 306.98126Q363.3125 307.59064 362.29688 307.59064Q361.01562 307.59064 360.23438 306.7625Q359.46875 305.91876 359.46875 304.35626Q359.46875 303.35626 359.79688 302.60626Q360.14062 301.84064 360.8125 301.46564Q361.5 301.09064 362.3125 301.09064Q363.3125 301.09064 363.95312 301.60626Q364.60938 302.10626 364.79688 303.0594L363.76562 303.21564Q363.625 302.59064 363.25 302.27814Q362.875 301.95 362.34375 301.95Q361.54688 301.95 361.04688 302.52814Q360.54688 303.09064 360.54688 304.325Q360.54688 305.59064 361.03125 306.15314Q361.51562 306.71564 362.28125 306.71564Q362.90625 306.71564 363.3125 306.34064Q363.73438 305.96564 363.85938 305.16876Z" fill-rule="nonzero"/><path fill="#000000" d="M393.05856 307.45L393.05856 301.23126L393.99606 301.23126L393.99606 302.10626Q394.29294 301.6375 394.7773 301.3719Q395.2617 301.09064 395.8867 301.09064Q396.5742 301.09064 397.0117 301.3719Q397.4648 301.65314 397.6367 302.16876Q398.3867 301.09064 399.55856 301.09064Q400.49606 301.09064 400.98044 301.60626Q401.48044 302.10626 401.48044 303.1844L401.48044 307.45L400.43356 307.45L400.43356 303.52814Q400.43356 302.90314 400.3242 302.6219Q400.23044 302.34064 399.9648 302.16876Q399.6992 301.9969 399.3242 301.9969Q398.66794 301.9969 398.23044 302.4344Q397.80856 302.8719 397.80856 303.84064L397.80856 307.45L396.74606 307.45L396.74606 303.40314Q396.74606 302.7 396.48044 302.35626Q396.23044 301.9969 395.6523 301.9969Q395.1992 301.9969 394.8242 302.23126Q394.4492 302.46564 394.2773 302.91876Q394.10544 303.3719 394.10544 304.21564L394.10544 307.45L393.05856 307.45ZM408.12106 306.6844Q407.5273 307.1844 406.98044 307.3875Q406.4492 307.59064 405.8242 307.59064Q404.79294 307.59064 404.24606 307.09064Q403.6992 306.59064 403.6992 305.8094Q403.6992 305.35626 403.9023 304.98126Q404.10544 304.59064 404.4492 304.3719Q404.79294 304.1375 405.2148 304.02814Q405.5117 303.9344 406.1523 303.85626Q407.41794 303.71564 408.0273 303.4969Q408.0273 303.27814 408.0273 303.23126Q408.0273 302.575 407.73044 302.3094Q407.3242 301.96564 406.5273 301.96564Q405.79294 301.96564 405.43356 302.23126Q405.0742 302.48126 404.9023 303.1375L403.87106 302.9969Q404.0117 302.34064 404.3398 301.9344Q404.66794 301.52814 405.2773 301.3094Q405.8867 301.09064 406.68356 301.09064Q407.48044 301.09064 407.98044 301.27814Q408.48044 301.46564 408.7148 301.7469Q408.9492 302.02814 409.04294 302.46564Q409.0898 302.73126 409.0898 303.4344L409.0898 304.84064Q409.0898 306.3094 409.1523 306.7Q409.23044 307.09064 409.43356 307.45L408.3242 307.45Q408.16794 307.1219 408.12106 306.6844ZM408.0273 304.325Q407.4492 304.5594 406.30856 304.73126Q405.6523 304.825 405.3867 304.95Q405.12106 305.0594 404.9648 305.27814Q404.8242 305.4969 404.8242 305.77814Q404.8242 306.2 405.1367 306.48126Q405.4648 306.7625 406.0742 306.7625Q406.68356 306.7625 407.1523 306.4969Q407.6367 306.23126 407.85544 305.7625Q408.0273 305.40314 408.0273 304.71564L408.0273 304.325ZM411.04294 307.45L411.04294 301.23126L411.99606 301.23126L411.99606 302.16876Q412.35544 301.5125 412.6523 301.3094Q412.9648 301.09064 413.3398 301.09064Q413.87106 301.09064 414.41794 301.41876L414.05856 302.40314Q413.66794 302.16876 413.29294 302.16876Q412.93356 302.16876 412.6523 302.3875Q412.3867 302.59064 412.2773 302.96564Q412.0898 303.52814 412.0898 304.1844L412.0898 307.45L411.04294 307.45ZM414.6367 305.59064L415.66794 305.4344Q415.7617 306.0594 416.1523 306.3875Q416.55856 306.71564 417.29294 306.71564Q418.0117 306.71564 418.35544 306.4344Q418.7148 306.1375 418.7148 305.73126Q418.7148 305.3719 418.4023 305.16876Q418.18356 305.02814 417.3242 304.8094Q416.16794 304.5125 415.7148 304.3094Q415.2773 304.09064 415.04294 303.71564Q414.80856 303.34064 414.80856 302.8719Q414.80856 302.46564 414.99606 302.10626Q415.18356 301.7469 415.5117 301.5125Q415.7617 301.34064 416.18356 301.21564Q416.60544 301.09064 417.10544 301.09064Q417.8242 301.09064 418.37106 301.3094Q418.93356 301.5125 419.1992 301.8719Q419.4648 302.23126 419.55856 302.825L418.5273 302.96564Q418.4648 302.4969 418.12106 302.23126Q417.79294 301.95 417.16794 301.95Q416.4492 301.95 416.1367 302.2Q415.8242 302.4344 415.8242 302.7625Q415.8242 302.96564 415.9492 303.1219Q416.0898 303.29376 416.35544 303.40314Q416.5117 303.46564 417.29294 303.66876Q418.41794 303.98126 418.85544 304.16876Q419.29294 304.35626 419.54294 304.71564Q419.79294 305.075 419.79294 305.6219Q419.79294 306.15314 419.48044 306.6219Q419.18356 307.075 418.60544 307.34064Q418.0273 307.59064 417.29294 307.59064Q416.0742 307.59064 415.43356 307.09064Q414.80856 306.575 414.6367 305.59064ZM422.05856 307.45L422.05856 298.85626L423.10544 298.85626L423.10544 301.9344Q423.8398 301.09064 424.9648 301.09064Q425.66794 301.09064 426.16794 301.3719Q426.68356 301.6375 426.9023 302.1219Q427.12106 302.59064 427.12106 303.5125L427.12106 307.45L426.0742 307.45L426.0742 303.5125Q426.0742 302.71564 425.73044 302.35626Q425.3867 301.9969 424.7617 301.9969Q424.29294 301.9969 423.87106 302.2469Q423.4648 302.48126 423.2773 302.90314Q423.10544 303.3094 423.10544 304.04376L423.10544 307.45L422.05856 307.45ZM429.05856 307.45L429.05856 301.23126L429.99606 301.23126L429.99606 302.10626Q430.29294 301.6375 430.7773 301.3719Q431.2617 301.09064 431.8867 301.09064Q432.5742 301.09064 433.0117 301.3719Q433.4648 301.65314 433.6367 302.16876Q434.3867 301.09064 435.55856 301.09064Q436.49606 301.09064 436.98044 301.60626Q437.48044 302.10626 437.48044 303.1844L437.48044 307.45L436.43356 307.45L436.43356 303.52814Q436.43356 302.90314 436.3242 302.6219Q436.23044 302.34064 435.9648 302.16876Q435.6992 301.9969 435.3242 301.9969Q434.66794 301.9969 434.23044 302.4344Q433.80856 302.8719 433.80856 303.84064L433.80856 307.45L432.74606 307.45L432.74606 303.40314Q432.74606 302.7 432.48044 302.35626Q432.23044 301.9969 431.6523 301.9969Q431.1992 301.9969 430.8242 302.23126Q430.4492 302.46564 430.2773 302.91876Q430.10544 303.3719 430.10544 304.21564L430.10544 307.45L429.05856 307.45ZM444.12106 306.6844Q443.5273 307.1844 442.98044 307.3875Q442.4492 307.59064 441.8242 307.59064Q440.79294 307.59064 440.24606 307.09064Q439.6992 306.59064 439.6992 305.8094Q439.6992 305.35626 439.9023 304.98126Q440.10544 304.59064 440.4492 304.3719Q440.79294 304.1375 441.2148 304.02814Q441.5117 303.9344 442.1523 303.85626Q443.41794 303.71564 444.0273 303.4969Q444.0273 303.27814 444.0273 303.23126Q444.0273 302.575 443.73044 302.3094Q443.3242 301.96564 442.5273 301.96564Q441.79294 301.96564 441.43356 302.23126Q441.0742 302.48126 440.9023 303.1375L439.87106 302.9969Q440.0117 302.34064 440.3398 301.9344Q440.66794 301.52814 441.2773 301.3094Q441.8867 301.09064 442.68356 301.09064Q443.48044 301.09064 443.98044 301.27814Q444.48044 301.46564 444.7148 301.7469Q444.9492 302.02814 445.04294 302.46564Q445.0898 302.73126 445.0898 303.4344L445.0898 304.84064Q445.0898 306.3094 445.1523 306.7Q445.23044 307.09064 445.43356 307.45L444.3242 307.45Q444.16794 307.1219 444.12106 306.6844ZM444.0273 304.325Q443.4492 304.5594 442.30856 304.73126Q441.6523 304.825 441.3867 304.95Q441.12106 305.0594 440.9648 305.27814Q440.8242 305.4969 440.8242 305.77814Q440.8242 306.2 441.1367 306.48126Q441.4648 306.7625 442.0742 306.7625Q442.68356 306.7625 443.1523 306.4969Q443.6367 306.23126 443.85544 305.7625Q444.0273 305.40314 444.0273 304.71564L444.0273 304.325ZM447.0273 307.45L447.0273 298.85626L448.0898 298.85626L448.0898 307.45L447.0273 307.45ZM450.0273 307.45L450.0273 298.85626L451.0898 298.85626L451.0898 307.45L450.0273 307.45ZM452.66794 304.34064Q452.66794 302.60626 453.62106 301.77814Q454.41794 301.09064 455.5742 301.09064Q456.85544 301.09064 457.66794 301.9344Q458.49606 302.7625 458.49606 304.2469Q458.49606 305.45 458.1367 306.1375Q457.7773 306.825 457.0742 307.21564Q456.3867 307.59064 455.5742 307.59064Q454.2773 307.59064 453.4648 306.7625Q452.66794 305.91876 452.66794 304.34064ZM453.74606 304.34064Q453.74606 305.52814 454.2617 306.1219Q454.79294 306.71564 455.5742 306.71564Q456.37106 306.71564 456.8867 306.1219Q457.4023 305.52814 457.4023 304.3094Q457.4023 303.15314 456.87106 302.5594Q456.35544 301.96564 455.5742 301.96564Q454.79294 301.96564 454.2617 302.5594Q453.74606 303.1375 453.74606 304.34064ZM461.1992 307.45L459.29294 301.23126L460.3867 301.23126L461.37106 304.825L461.74606 306.15314Q461.7773 306.0594 462.0742 304.8719L463.05856 301.23126L464.1367 301.23126L465.0742 304.84064L465.3867 306.02814L465.74606 304.825L466.80856 301.23126L467.8398 301.23126L465.8867 307.45L464.79294 307.45L463.80856 303.71564L463.55856 302.66876L462.30856 307.45L461.1992 307.45Z" fill-rule="nonzero"/><path fill="#000000" d="M483.32025 307.45L483.32025 301.23126L484.25775 301.23126L484.25775 302.10626Q484.55463 301.6375 485.039 301.3719Q485.52338 301.09064 486.14838 301.09064Q486.83588 301.09064 487.27338 301.3719Q487.7265 301.65314 487.89838 302.16876Q488.64838 301.09064 489.82025 301.09064Q490.75775 301.09064 491.24213 301.60626Q491.74213 302.10626 491.74213 303.1844L491.74213 307.45L490.69525 307.45L490.69525 303.52814Q490.69525 302.90314 490.58588 302.6219Q490.49213 302.34064 490.2265 302.16876Q489.96088 301.9969 489.58588 301.9969Q488.92963 301.9969 488.49213 302.4344Q488.07025 302.8719 488.07025 303.84064L488.07025 307.45L487.00775 307.45L487.00775 303.40314Q487.00775 302.7 486.74213 302.35626Q486.49213 301.9969 485.914 301.9969Q485.46088 301.9969 485.08588 302.23126Q484.71088 302.46564 484.539 302.91876Q484.36713 303.3719 484.36713 304.21564L484.36713 307.45L483.32025 307.45ZM498.38275 306.6844Q497.789 307.1844 497.24213 307.3875Q496.71088 307.59064 496.08588 307.59064Q495.05463 307.59064 494.50775 307.09064Q493.96088 306.59064 493.96088 305.8094Q493.96088 305.35626 494.164 304.98126Q494.36713 304.59064 494.71088 304.3719Q495.05463 304.1375 495.4765 304.02814Q495.77338 303.9344 496.414 303.85626Q497.67963 303.71564 498.289 303.4969Q498.289 303.27814 498.289 303.23126Q498.289 302.575 497.99213 302.3094Q497.58588 301.96564 496.789 301.96564Q496.05463 301.96564 495.69525 302.23126Q495.33588 302.48126 495.164 303.1375L494.13275 302.9969Q494.27338 302.34064 494.6015 301.9344Q494.92963 301.52814 495.539 301.3094Q496.14838 301.09064 496.94525 301.09064Q497.74213 301.09064 498.24213 301.27814Q498.74213 301.46564 498.9765 301.7469Q499.21088 302.02814 499.30463 302.46564Q499.3515 302.73126 499.3515 303.4344L499.3515 304.84064Q499.3515 306.3094 499.414 306.7Q499.49213 307.09064 499.69525 307.45L498.58588 307.45Q498.42963 307.1219 498.38275 306.6844ZM498.289 304.325Q497.71088 304.5594 496.57025 304.73126Q495.914 304.825 495.64838 304.95Q495.38275 305.0594 495.2265 305.27814Q495.08588 305.4969 495.08588 305.77814Q495.08588 306.2 495.39838 306.48126Q495.7265 306.7625 496.33588 306.7625Q496.94525 306.7625 497.414 306.4969Q497.89838 306.23126 498.11713 305.7625Q498.289 305.40314 498.289 304.71564L498.289 304.325ZM501.30463 307.45L501.30463 301.23126L502.25775 301.23126L502.25775 302.16876Q502.61713 301.5125 502.914 301.3094Q503.2265 301.09064 503.6015 301.09064Q504.13275 301.09064 504.67963 301.41876L504.32025 302.40314Q503.92963 302.16876 503.55463 302.16876Q503.19525 302.16876 502.914 302.3875Q502.64838 302.59064 502.539 302.96564Q502.3515 303.52814 502.3515 304.1844L502.3515 307.45L501.30463 307.45ZM504.89838 305.59064L505.92963 305.4344Q506.02338 306.0594 506.414 306.3875Q506.82025 306.71564 507.55463 306.71564Q508.27338 306.71564 508.61713 306.4344Q508.9765 306.1375 508.9765 305.73126Q508.9765 305.3719 508.664 305.16876Q508.44525 305.02814 507.58588 304.8094Q506.42963 304.5125 505.9765 304.3094Q505.539 304.09064 505.30463 303.71564Q505.07025 303.34064 505.07025 302.8719Q505.07025 302.46564 505.25775 302.10626Q505.44525 301.7469 505.77338 301.5125Q506.02338 301.34064 506.44525 301.21564Q506.86713 301.09064 507.36713 301.09064Q508.08588 301.09064 508.63275 301.3094Q509.19525 301.5125 509.46088 301.8719Q509.7265 302.23126 509.82025 302.825L508.789 302.96564Q508.7265 302.4969 508.38275 302.23126Q508.05463 301.95 507.42963 301.95Q506.71088 301.95 506.39838 302.2Q506.08588 302.4344 506.08588 302.7625Q506.08588 302.96564 506.21088 303.1219Q506.3515 303.29376 506.61713 303.40314Q506.77338 303.46564 507.55463 303.66876Q508.67963 303.98126 509.11713 304.16876Q509.55463 304.35626 509.80463 304.71564Q510.05463 305.075 510.05463 305.6219Q510.05463 306.15314 509.74213 306.6219Q509.44525 307.075 508.86713 307.34064Q508.289 307.59064 507.55463 307.59064Q506.33588 307.59064 505.69525 307.09064Q505.07025 306.575 504.89838 305.59064ZM512.32025 307.45L512.32025 298.85626L513.3671 298.85626L513.3671 301.9344Q514.1015 301.09064 515.2265 301.09064Q515.9296 301.09064 516.4296 301.3719Q516.94525 301.6375 517.164 302.1219Q517.38275 302.59064 517.38275 303.5125L517.38275 307.45L516.3359 307.45L516.3359 303.5125Q516.3359 302.71564 515.9921 302.35626Q515.6484 301.9969 515.0234 301.9969Q514.5546 301.9969 514.13275 302.2469Q513.7265 302.48126 513.539 302.90314Q513.3671 303.3094 513.3671 304.04376L513.3671 307.45L512.32025 307.45ZM519.32025 307.45L519.32025 301.23126L520.25775 301.23126L520.25775 302.10626Q520.5546 301.6375 521.039 301.3719Q521.5234 301.09064 522.1484 301.09064Q522.8359 301.09064 523.2734 301.3719Q523.7265 301.65314 523.8984 302.16876Q524.6484 301.09064 525.82025 301.09064Q526.75775 301.09064 527.2421 301.60626Q527.7421 302.10626 527.7421 303.1844L527.7421 307.45L526.69525 307.45L526.69525 303.52814Q526.69525 302.90314 526.5859 302.6219Q526.4921 302.34064 526.2265 302.16876Q525.9609 301.9969 525.5859 301.9969Q524.9296 301.9969 524.4921 302.4344Q524.07025 302.8719 524.07025 303.84064L524.07025 307.45L523.00775 307.45L523.00775 303.40314Q523.00775 302.7 522.7421 302.35626Q522.4921 301.9969 521.914 301.9969Q521.4609 301.9969 521.0859 302.23126Q520.7109 302.46564 520.539 302.91876Q520.3671 303.3719 520.3671 304.21564L520.3671 307.45L519.32025 307.45ZM534.38275 306.6844Q533.789 307.1844 533.2421 307.3875Q532.7109 307.59064 532.0859 307.59064Q531.0546 307.59064 530.50775 307.09064Q529.9609 306.59064 529.9609 305.8094Q529.9609 305.35626 530.164 304.98126Q530.3671 304.59064 530.7109 304.3719Q531.0546 304.1375 531.4765 304.02814Q531.7734 303.9344 532.414 303.85626Q533.6796 303.71564 534.289 303.4969Q534.289 303.27814 534.289 303.23126Q534.289 302.575 533.9921 302.3094Q533.5859 301.96564 532.789 301.96564Q532.0546 301.96564 531.69525 302.23126Q531.3359 302.48126 531.164 303.1375L530.13275 302.9969Q530.2734 302.34064 530.6015 301.9344Q530.9296 301.52814 531.539 301.3094Q532.1484 301.09064 532.94525 301.09064Q533.7421 301.09064 534.2421 301.27814Q534.7421 301.46564 534.9765 301.7469Q535.2109 302.02814 535.3046 302.46564Q535.3515 302.73126 535.3515 303.4344L535.3515 304.84064Q535.3515 306.3094 535.414 306.7Q535.4921 307.09064 535.69525 307.45L534.5859 307.45Q534.4296 307.1219 534.38275 306.6844ZM534.289 304.325Q533.7109 304.5594 532.57025 304.73126Q531.914 304.825 531.6484 304.95Q531.38275 305.0594 531.2265 305.27814Q531.0859 305.4969 531.0859 305.77814Q531.0859 306.2 531.3984 306.48126Q531.7265 306.7625 532.3359 306.7625Q532.94525 306.7625 533.414 306.4969Q533.8984 306.23126 534.1171 305.7625Q534.289 305.40314 534.289 304.71564L534.289 304.325ZM537.289 307.45L537.289 298.85626L538.3515 298.85626L538.3515 307.45L537.289 307.45ZM540.289 307.45L540.289 298.85626L541.3515 298.85626L541.3515 307.45L540.289 307.45ZM542.9296 304.34064Q542.9296 302.60626 543.88275 301.77814Q544.6796 301.09064 545.8359 301.09064Q547.1171 301.09064 547.9296 301.9344Q548.75775 302.7625 548.75775 304.2469Q548.75775 305.45 548.3984 306.1375Q548.039 306.825 547.3359 307.21564Q546.6484 307.59064 545.8359 307.59064Q544.539 307.59064 543.7265 306.7625Q542.9296 305.91876 542.9296 304.34064ZM544.00775 304.34064Q544.00775 305.52814 544.5234 306.1219Q545.0546 306.71564 545.8359 306.71564Q546.63275 306.71564 547.1484 306.1219Q547.664 305.52814 547.664 304.3094Q547.664 303.15314 547.13275 302.5594Q546.6171 301.96564 545.8359 301.96564Q545.0546 301.96564 544.5234 302.5594Q544.00775 303.1375 544.00775 304.34064ZM551.4609 307.45L549.5546 301.23126L550.6484 301.23126L551.63275 304.825L552.00775 306.15314Q552.039 306.0594 552.3359 304.8719L553.32025 301.23126L554.3984 301.23126L555.3359 304.84064L555.6484 306.02814L556.00775 304.825L557.07025 301.23126L558.1015 301.23126L556.1484 307.45L555.0546 307.45L554.07025 303.71564L553.82025 302.66876L552.57025 307.45L551.4609 307.45Z" fill-rule="nonzero"/><path fill="#000000" d="M502.96088 321.45L501.05463 315.23126L502.14838 315.23126L503.13275 318.825L503.50775 320.15314Q503.539 320.0594 503.83588 318.8719L504.82025 315.23126L505.89838 315.23126L506.83588 318.84064L507.14838 320.02814L507.50775 318.825L508.57025 315.23126L509.6015 315.23126L507.64838 321.45L506.55463 321.45L505.57025 317.71564L505.32025 316.66876L504.07025 321.45L502.96088 321.45ZM510.82025 314.075L510.82025 312.85626L511.88275 312.85626L511.88275 314.075L510.82025 314.075ZM510.82025 321.45L510.82025 315.23126L511.88275 315.23126L511.88275 321.45L510.82025 321.45ZM516.1171 320.5125L516.2734 321.4344Q515.82025 321.52814 515.4765 321.52814Q514.8984 321.52814 514.5859 321.35626Q514.2734 321.16876 514.13275 320.8719Q514.00775 320.575 514.00775 319.6219L514.00775 316.04376L513.2421 316.04376L513.2421 315.23126L514.00775 315.23126L514.00775 313.6844L515.0546 313.0594L515.0546 315.23126L516.1171 315.23126L516.1171 316.04376L515.0546 316.04376L515.0546 319.6844Q515.0546 320.1375 515.1015 320.2625Q515.164 320.3875 515.289 320.46564Q515.414 320.54376 515.6484 320.54376Q515.8359 320.54376 516.1171 320.5125ZM516.82025 321.45L516.82025 312.85626L517.8671 312.85626L517.8671 315.9344Q518.6015 315.09064 519.7265 315.09064Q520.4296 315.09064 520.9296 315.3719Q521.44525 315.6375 521.664 316.1219Q521.88275 316.59064 521.88275 317.5125L521.88275 321.45L520.8359 321.45L520.8359 317.5125Q520.8359 316.71564 520.4921 316.35626Q520.1484 315.9969 519.5234 315.9969Q519.0546 315.9969 518.63275 316.2469Q518.2265 316.48126 518.039 316.90314Q517.8671 317.3094 517.8671 318.04376L517.8671 321.45L516.82025 321.45ZM523.4296 318.34064Q523.4296 316.60626 524.38275 315.77814Q525.1796 315.09064 526.3359 315.09064Q527.6171 315.09064 528.4296 315.9344Q529.25775 316.7625 529.25775 318.2469Q529.25775 319.45 528.8984 320.1375Q528.539 320.825 527.8359 321.21564Q527.1484 321.59064 526.3359 321.59064Q525.039 321.59064 524.2265 320.7625Q523.4296 319.91876 523.4296 318.34064ZM524.50775 318.34064Q524.50775 319.52814 525.0234 320.1219Q525.5546 320.71564 526.3359 320.71564Q527.13275 320.71564 527.6484 320.1219Q528.164 319.52814 528.164 318.3094Q528.164 317.15314 527.63275 316.5594Q527.1171 315.96564 526.3359 315.96564Q525.5546 315.96564 525.0234 316.5594Q524.50775 317.1375 524.50775 318.34064ZM534.8984 321.45L534.8984 320.52814Q534.164 321.59064 532.914 321.59064Q532.3671 321.59064 531.88275 321.3875Q531.414 321.16876 531.1796 320.85626Q530.94525 320.52814 530.8515 320.0594Q530.789 319.7625 530.789 319.075L530.789 315.23126L531.8515 315.23126L531.8515 318.6844Q531.8515 319.4969 531.914 319.79376Q532.00775 320.2 532.32025 320.45Q532.6484 320.6844 533.13275 320.6844Q533.6015 320.6844 534.00775 320.45Q534.4296 320.2 534.6015 319.77814Q534.789 319.35626 534.789 318.5594L534.789 315.23126L535.8359 315.23126L535.8359 321.45L534.8984 321.45ZM540.1171 320.5125L540.2734 321.4344Q539.82025 321.52814 539.4765 321.52814Q538.8984 321.52814 538.5859 321.35626Q538.2734 321.16876 538.13275 320.8719Q538.00775 320.575 538.00775 319.6219L538.00775 316.04376L537.2421 316.04376L537.2421 315.23126L538.00775 315.23126L538.00775 313.6844L539.0546 313.0594L539.0546 315.23126L540.1171 315.23126L540.1171 316.04376L539.0546 316.04376L539.0546 319.6844Q539.0546 320.1375 539.1015 320.2625Q539.164 320.3875 539.289 320.46564Q539.414 320.54376 539.6484 320.54376Q539.8359 320.54376 540.1171 320.5125Z" fill-rule="nonzero"/><path fill="#000000" d="M492.32025 337.84064L492.32025 329.23126L493.27338 329.23126L493.27338 330.02814Q493.61713 329.5594 494.039 329.325Q494.4765 329.09064 495.08588 329.09064Q495.88275 329.09064 496.49213 329.4969Q497.1015 329.90314 497.39838 330.65314Q497.71088 331.40314 497.71088 332.29376Q497.71088 333.2469 497.36713 334.0125Q497.039 334.77814 496.38275 335.1844Q495.7265 335.59064 495.00775 335.59064Q494.4765 335.59064 494.05463 335.3719Q493.63275 335.1375 493.36713 334.8094L493.36713 337.84064L492.32025 337.84064ZM493.27338 332.3719Q493.27338 333.575 493.75775 334.15314Q494.24213 334.71564 494.92963 334.71564Q495.63275 334.71564 496.13275 334.1219Q496.63275 333.52814 496.63275 332.27814Q496.63275 331.09064 496.14838 330.5125Q495.664 329.91876 494.9765 329.91876Q494.30463 329.91876 493.789 330.54376Q493.27338 331.16876 493.27338 332.3719ZM498.92963 332.34064Q498.92963 330.60626 499.88275 329.77814Q500.67963 329.09064 501.83588 329.09064Q503.11713 329.09064 503.92963 329.9344Q504.75775 330.7625 504.75775 332.2469Q504.75775 333.45 504.39838 334.1375Q504.039 334.825 503.33588 335.21564Q502.64838 335.59064 501.83588 335.59064Q500.539 335.59064 499.7265 334.7625Q498.92963 333.91876 498.92963 332.34064ZM500.00775 332.34064Q500.00775 333.52814 500.52338 334.1219Q501.05463 334.71564 501.83588 334.71564Q502.63275 334.71564 503.14838 334.1219Q503.664 333.52814 503.664 332.3094Q503.664 331.15314 503.13275 330.5594Q502.61713 329.96564 501.83588 329.96564Q501.05463 329.96564 500.52338 330.5594Q500.00775 331.1375 500.00775 332.34064ZM506.32025 337.84064L506.32025 329.23126L507.27338 329.23126L507.27338 330.02814Q507.61713 329.5594 508.039 329.325Q508.4765 329.09064 509.08588 329.09064Q509.88275 329.09064 510.49213 329.4969Q511.1015 329.90314 511.39838 330.65314Q511.71088 331.40314 511.71088 332.29376Q511.71088 333.2469 511.36713 334.0125Q511.039 334.77814 510.38275 335.1844Q509.7265 335.59064 509.00775 335.59064Q508.4765 335.59064 508.05463 335.3719Q507.63275 335.1375 507.36713 334.8094L507.36713 337.84064L506.32025 337.84064ZM507.27338 332.3719Q507.27338 333.575 507.75775 334.15314Q508.24213 334.71564 508.92963 334.71564Q509.63275 334.71564 510.13275 334.1219Q510.63275 333.52814 510.63275 332.27814Q510.63275 331.09064 510.14838 330.5125Q509.664 329.91876 508.9765 329.91876Q508.30463 329.91876 507.789 330.54376Q507.27338 331.16876 507.27338 332.3719ZM517.3984 335.45L517.3984 334.52814Q516.664 335.59064 515.414 335.59064Q514.8671 335.59064 514.38275 335.3875Q513.914 335.16876 513.6796 334.85626Q513.44525 334.52814 513.3515 334.0594Q513.289 333.7625 513.289 333.075L513.289 329.23126L514.3515 329.23126L514.3515 332.6844Q514.3515 333.4969 514.414 333.79376Q514.50775 334.2 514.82025 334.45Q515.1484 334.6844 515.63275 334.6844Q516.1015 334.6844 516.50775 334.45Q516.9296 334.2 517.1015 333.77814Q517.289 333.35626 517.289 332.5594L517.289 329.23126L518.3359 329.23126L518.3359 335.45L517.3984 335.45ZM520.289 335.45L520.289 326.85626L521.3515 326.85626L521.3515 335.45L520.289 335.45ZM527.38275 334.6844Q526.789 335.1844 526.2421 335.3875Q525.7109 335.59064 525.0859 335.59064Q524.0546 335.59064 523.50775 335.09064Q522.9609 334.59064 522.9609 333.8094Q522.9609 333.35626 523.164 332.98126Q523.3671 332.59064 523.7109 332.3719Q524.0546 332.1375 524.4765 332.02814Q524.7734 331.9344 525.414 331.85626Q526.6796 331.71564 527.289 331.4969Q527.289 331.27814 527.289 331.23126Q527.289 330.575 526.9921 330.3094Q526.5859 329.96564 525.789 329.96564Q525.0546 329.96564 524.69525 330.23126Q524.3359 330.48126 524.164 331.1375L523.13275 330.9969Q523.2734 330.34064 523.6015 329.9344Q523.9296 329.52814 524.539 329.3094Q525.1484 329.09064 525.94525 329.09064Q526.7421 329.09064 527.2421 329.27814Q527.7421 329.46564 527.9765 329.7469Q528.2109 330.02814 528.3046 330.46564Q528.3515 330.73126 528.3515 331.4344L528.3515 332.84064Q528.3515 334.3094 528.414 334.7Q528.4921 335.09064 528.69525 335.45L527.5859 335.45Q527.4296 335.1219 527.38275 334.6844ZM527.289 332.325Q526.7109 332.5594 525.57025 332.73126Q524.914 332.825 524.6484 332.95Q524.38275 333.0594 524.2265 333.27814Q524.0859 333.4969 524.0859 333.77814Q524.0859 334.2 524.3984 334.48126Q524.7265 334.7625 525.3359 334.7625Q525.94525 334.7625 526.414 334.4969Q526.8984 334.23126 527.1171 333.7625Q527.289 333.40314 527.289 332.71564L527.289 332.325ZM532.6171 334.5125L532.7734 335.4344Q532.32025 335.52814 531.9765 335.52814Q531.3984 335.52814 531.0859 335.35626Q530.7734 335.16876 530.63275 334.8719Q530.50775 334.575 530.50775 333.6219L530.50775 330.04376L529.7421 330.04376L529.7421 329.23126L530.50775 329.23126L530.50775 327.6844L531.5546 327.0594L531.5546 329.23126L532.6171 329.23126L532.6171 330.04376L531.5546 330.04376L531.5546 333.6844Q531.5546 334.1375 531.6015 334.2625Q531.664 334.3875 531.789 334.46564Q531.914 334.54376 532.1484 334.54376Q532.3359 334.54376 532.6171 334.5125ZM533.32025 328.075L533.32025 326.85626L534.38275 326.85626L534.38275 328.075L533.32025 328.075ZM533.32025 335.45L533.32025 329.23126L534.38275 329.23126L534.38275 335.45L533.32025 335.45ZM536.32025 335.45L536.32025 329.23126L537.25775 329.23126L537.25775 330.10626Q537.94525 329.09064 539.2421 329.09064Q539.8046 329.09064 540.2734 329.29376Q540.75775 329.4969 540.9921 329.825Q541.2265 330.15314 541.32025 330.59064Q541.3671 330.8875 541.3671 331.6219L541.3671 335.45L540.32025 335.45L540.32025 331.66876Q540.32025 331.0125 540.19525 330.7Q540.07025 330.3875 539.75775 330.2Q539.44525 329.9969 539.0234 329.9969Q538.3515 329.9969 537.8515 330.4344Q537.3671 330.85626 537.3671 332.04376L537.3671 335.45L536.32025 335.45ZM543.1171 335.96564L544.1484 336.1219Q544.2109 336.59064 544.50775 336.8094Q544.8984 337.10626 545.57025 337.10626Q546.3046 337.10626 546.69525 336.8094Q547.1015 336.5125 547.2421 335.9969Q547.3359 335.66876 547.32025 334.6375Q546.63275 335.45 545.6015 335.45Q544.32025 335.45 543.6171 334.52814Q542.914 333.59064 542.914 332.3094Q542.914 331.41876 543.2265 330.66876Q543.5546 329.90314 544.164 329.4969Q544.7734 329.09064 545.6015 329.09064Q546.7109 329.09064 547.4296 329.98126L547.4296 329.23126L548.3984 329.23126L548.3984 334.60626Q548.3984 336.0594 548.1015 336.66876Q547.8046 337.27814 547.164 337.6219Q546.5234 337.98126 545.5859 337.98126Q544.4765 337.98126 543.789 337.48126Q543.1015 336.98126 543.1171 335.96564ZM543.9921 332.23126Q543.9921 333.45 544.4765 334.0125Q544.9609 334.575 545.69525 334.575Q546.4296 334.575 546.914 334.0125Q547.414 333.45 547.414 332.2625Q547.414 331.1219 546.8984 330.54376Q546.3984 329.96564 545.6796 329.96564Q544.9765 329.96564 544.4765 330.54376Q543.9921 331.10626 543.9921 332.23126Z" fill-rule="nonzero"/><path fill="#000000" d="M505.89838 347.59064L506.92963 347.4344Q507.02338 348.0594 507.414 348.3875Q507.82025 348.71564 508.55463 348.71564Q509.27338 348.71564 509.61713 348.4344Q509.9765 348.1375 509.9765 347.73126Q509.9765 347.3719 509.664 347.16876Q509.44525 347.02814 508.58588 346.8094Q507.42963 346.5125 506.9765 346.3094Q506.539 346.09064 506.30463 345.71564Q506.07025 345.34064 506.07025 344.8719Q506.07025 344.46564 506.25775 344.10626Q506.44525 343.7469 506.77338 343.5125Q507.02338 343.34064 507.44525 343.21564Q507.86713 343.09064 508.36713 343.09064Q509.08588 343.09064 509.63275 343.3094Q510.19525 343.5125 510.46088 343.8719Q510.7265 344.23126 510.82025 344.825L509.789 344.96564Q509.7265 344.4969 509.38275 344.23126Q509.05463 343.95 508.42963 343.95Q507.71088 343.95 507.39838 344.2Q507.08588 344.4344 507.08588 344.7625Q507.08588 344.96564 507.21088 345.1219Q507.3515 345.29376 507.61713 345.40314Q507.77338 345.46564 508.55463 345.66876Q509.67963 345.98126 510.11713 346.16876Q510.55463 346.35626 510.80463 346.71564Q511.05463 347.075 511.05463 347.6219Q511.05463 348.15314 510.74213 348.6219Q510.44525 349.075 509.86713 349.34064Q509.289 349.59064 508.55463 349.59064Q507.33588 349.59064 506.69525 349.09064Q506.07025 348.575 505.89838 347.59064ZM515.6171 348.5125L515.7734 349.4344Q515.32025 349.52814 514.9765 349.52814Q514.3984 349.52814 514.0859 349.35626Q513.7734 349.16876 513.63275 348.8719Q513.50775 348.575 513.50775 347.6219L513.50775 344.04376L512.7421 344.04376L512.7421 343.23126L513.50775 343.23126L513.50775 341.6844L514.5546 341.0594L514.5546 343.23126L515.6171 343.23126L515.6171 344.04376L514.5546 344.04376L514.5546 347.6844Q514.5546 348.1375 514.6015 348.2625Q514.664 348.3875 514.789 348.46564Q514.914 348.54376 515.1484 348.54376Q515.3359 348.54376 515.6171 348.5125ZM516.3046 349.45L516.3046 343.23126L517.25775 343.23126L517.25775 344.16876Q517.6171 343.5125 517.914 343.3094Q518.2265 343.09064 518.6015 343.09064Q519.13275 343.09064 519.6796 343.41876L519.32025 344.40314Q518.9296 344.16876 518.5546 344.16876Q518.19525 344.16876 517.914 344.3875Q517.6484 344.59064 517.539 344.96564Q517.3515 345.52814 517.3515 346.1844L517.3515 349.45L516.3046 349.45ZM524.3984 349.45L524.3984 348.52814Q523.664 349.59064 522.414 349.59064Q521.8671 349.59064 521.38275 349.3875Q520.914 349.16876 520.6796 348.85626Q520.44525 348.52814 520.3515 348.0594Q520.289 347.7625 520.289 347.075L520.289 343.23126L521.3515 343.23126L521.3515 346.6844Q521.3515 347.4969 521.414 347.79376Q521.50775 348.2 521.82025 348.45Q522.1484 348.6844 522.63275 348.6844Q523.1015 348.6844 523.50775 348.45Q523.9296 348.2 524.1015 347.77814Q524.289 347.35626 524.289 346.5594L524.289 343.23126L525.3359 343.23126L525.3359 349.45L524.3984 349.45ZM531.38275 347.16876L532.414 347.3094Q532.2421 348.3719 531.539 348.98126Q530.8359 349.59064 529.82025 349.59064Q528.539 349.59064 527.75775 348.7625Q526.9921 347.91876 526.9921 346.35626Q526.9921 345.35626 527.32025 344.60626Q527.664 343.84064 528.3359 343.46564Q529.0234 343.09064 529.8359 343.09064Q530.8359 343.09064 531.4765 343.60626Q532.13275 344.10626 532.32025 345.0594L531.289 345.21564Q531.1484 344.59064 530.7734 344.27814Q530.3984 343.95 529.8671 343.95Q529.07025 343.95 528.57025 344.52814Q528.07025 345.09064 528.07025 346.325Q528.07025 347.59064 528.5546 348.15314Q529.039 348.71564 529.8046 348.71564Q530.4296 348.71564 530.8359 348.34064Q531.25775 347.96564 531.38275 347.16876ZM535.6171 348.5125L535.7734 349.4344Q535.32025 349.52814 534.9765 349.52814Q534.3984 349.52814 534.0859 349.35626Q533.7734 349.16876 533.63275 348.8719Q533.50775 348.575 533.50775 347.6219L533.50775 344.04376L532.7421 344.04376L532.7421 343.23126L533.50775 343.23126L533.50775 341.6844L534.5546 341.0594L534.5546 343.23126L535.6171 343.23126L535.6171 344.04376L534.5546 344.04376L534.5546 347.6844Q534.5546 348.1375 534.6015 348.2625Q534.664 348.3875 534.789 348.46564Q534.914 348.54376 535.1484 348.54376Q535.3359 348.54376 535.6171 348.5125Z" fill-rule="nonzero"/></svg>